g 1_EffectSource
v 0.1758004 -0.5686211 -0.1245368
v 0.05509822 -0.6234438 -0.1082647
v 0.1438708 -0.623444 -0.08593278
v 0.0002800644 -0.568621 -0.15077
v 0.2177691 -0.568621 -0.04561313
v 0.1715943 -0.6234438 -0.02895064
v 0.1870236 -0.5017655 -0.1395303
v 0.0685707 -0.5017655 -0.1688117
v 0.2347013 -0.5017655 -0.05408057
v 0.1276688 -0.05980734 -0.1153636
v -0.00173759 -0.05980733 -0.1399237
v 0.1646091 -0.05980732 -0.05346338
v 0.2347013 -0.5017655 0.05408055
v 0.1646091 -0.05980732 0.02813983
v 0.1089449 0.007598848 -0.06596337
v -0.002165706 0.007598845 -0.08580391
v 0.1089449 0.007598848 0.03440539
v -0.002165703 0.007598838 0.05424592
v -0.1132762 0.007598848 -0.06596336
v 0.1715943 -0.6234438 0.0347275
v 0.2177691 -0.568621 0.04965588
v -0.131144 -0.05980734 -0.1153636
v -0.0685707 -0.5017655 -0.1688117
v -0.1870236 -0.5017655 -0.1395303
v -0.1752402 -0.568621 -0.1245368
v -0.05430086 -0.6234438 -0.1082646
v -0.1430734 -0.6234438 -0.08593276
v -0.2172089 -0.568621 -0.04561314
v -0.1707969 -0.6234438 -0.02895062
v -0.2347013 -0.5017655 -0.05408056
v -0.1680842 -0.05980732 -0.05346337
v -0.2347013 -0.5017655 0.05408057
v -0.1680842 -0.05980732 0.02813983
v -0.1132762 0.007598848 0.03440539
v -0.1707969 -0.6234438 0.0347275
v -0.2172089 -0.568621 0.04965587
v -0.05430085 -0.623444 0.1140416
v -0.1132762 0.007598848 0.03440539
v -0.1132762 0.007598848 -0.06596336
v -0.002165703 0.007598838 0.05424592
v -0.001737585 -0.05980734 0.1146002
v 0.1089449 0.007598848 0.03440539
v 0.1276688 -0.05980735 0.09004005
v 0.06857071 -0.5017655 0.1688117
v 0.1870236 -0.5017655 0.1395303
v 0.0002800679 -0.5686211 0.1548127
v 0.1758003 -0.568621 0.1285796
v 0.05509822 -0.6234438 0.1140416
v 0.1438708 -0.6234438 0.09170961
v 0.2177691 -0.568621 0.04965588
v 0.1715943 -0.6234438 0.0347275
v 0.2347013 -0.5017655 0.05408055
v 0.1646091 -0.05980732 0.02813983
v -0.05430085 -0.623444 0.1140416
v -0.0685707 -0.5017655 0.1688118
v -0.1752402 -0.5686211 0.1285796
v -0.1430735 -0.6234438 0.09170967
v -0.2172089 -0.568621 0.04965587
v -0.1707969 -0.6234438 0.0347275
v -0.1870236 -0.5017655 0.1395303
v -0.2347013 -0.5017655 0.05408057
v -0.131144 -0.05980735 0.09004005
v -0.1680842 -0.05980732 0.02813983
vt 0.4358827 0.8035077
vt 0.3961705 0.8129241
vt 0.4278947 0.8129241
vt 0.3765842 0.8035077
vt 0.4500616 0.8035077
vt 0.4378021 0.8129241
vt 0.4373238 0.7812752
vt 0.3987962 0.7812752
vt 0.4528313 0.7812752
vt 0.4243924 0.6441701
vt 0.3759314 0.6441701
vt 0.4367715 0.6441701
vt 0.4528313 0.7812752
vt 0.4367715 0.6441701
vt 0.4162411 0.6082133
vt 0.375784 0.6082133
vt 0.4162411 0.6082133
vt 0.375784 0.6082133
vt 0.335327 0.6082133
vt 0.4378021 0.8129241
vt 0.4500616 0.8035077
vt 0.3274702 0.6441701
vt 0.3541899 0.7812752
vt 0.3156623 0.7812752
vt 0.3172855 0.8035077
vt 0.3570751 0.8129241
vt 0.3253509 0.8129241
vt 0.3031067 0.8035077
vt 0.3154434 0.8129241
vt 0.3001548 0.7812752
vt 0.3150911 0.6441701
vt 0.3001548 0.7812752
vt 0.3150911 0.6441701
vt 0.335327 0.6082133
vt 0.3154434 0.8129241
vt 0.3031067 0.8035077
vt 0.3570751 0.8129241
vt 0.335327 0.6082133
vt 0.335327 0.6082133
vt 0.375784 0.6082133
vt 0.3759314 0.6441701
vt 0.4162411 0.6082133
vt 0.4243924 0.6441701
vt 0.3987962 0.7812752
vt 0.4373238 0.7812752
vt 0.3765842 0.8035077
vt 0.4358827 0.8035077
vt 0.3961705 0.8129241
vt 0.4278947 0.8129241
vt 0.4500616 0.8035077
vt 0.4378021 0.8129241
vt 0.4528313 0.7812752
vt 0.4367715 0.6441701
vt 0.3570751 0.8129241
vt 0.3541899 0.7812752
vt 0.3172855 0.8035077
vt 0.3253509 0.8129241
vt 0.3031067 0.8035077
vt 0.3154434 0.8129241
vt 0.3156623 0.7812752
vt 0.3001548 0.7812752
vt 0.3274702 0.6441701
vt 0.3150911 0.6441701
vn 0.5191759 -0.4536958 -0.7243042
vn 0.06116343 -0.8711621 -0.4871711
vn 0.2995679 -0.8746886 -0.3810236
vn 0.0001091715 -0.4429551 -0.8965438
vn 0.8620042 -0.4612055 -0.2103292
vn 0.4464126 -0.8895965 -0.09661237
vn 0.5988581 -0.08521269 -0.7963089
vn 0.1476528 -0.1666157 -0.974904
vn 0.9667783 -0.05419548 -0.2498051
vn 0.517387 0.3583167 -0.7771228
vn -4.787587E-05 0.3612529 -0.9324678
vn 0.8961037 0.3785787 -0.2316817
vn 0.9673511 -0.04060946 0.2501653
vn 0.8917391 0.3901265 0.2293531
vn 0.4033684 0.8478871 -0.344066
vn -0.0002906905 0.8825247 -0.4702659
vn 0.4001678 0.8582187 0.3214442
vn -0.0002646923 0.8956243 0.4448112
vn -0.4067748 0.8460699 -0.3445287
vn 0.4477208 -0.8887127 0.09867039
vn 0.8649728 -0.4534293 0.2149978
vn -0.5183852 0.3546246 -0.7781505
vn -0.1474482 -0.1678247 -0.9747276
vn -0.5986823 -0.08963109 -0.7959558
vn -0.5175753 -0.4563186 -0.7238019
vn -0.06107997 -0.8712656 -0.4869963
vn -0.2987964 -0.8750809 -0.3807285
vn -0.8597273 -0.4656273 -0.209905
vn -0.445282 -0.8901823 -0.09643439
vn -0.966377 -0.06143459 -0.2496824
vn -0.8988349 0.3717735 -0.2321214
vn -0.9670331 -0.04786555 0.2501118
vn -0.8945147 0.3834116 0.2298671
vn -0.4035638 0.8564626 0.321882
vn -0.4465885 -0.8893028 0.09848422
vn -0.8627286 -0.4578827 0.2145757
vn -0.06233729 -0.8655922 0.4968542
vn -0.4035638 0.8564626 0.321882
vn -0.4067748 0.8460699 -0.3445287
vn -0.0002646923 0.8956243 0.4448112
vn -6.78089E-05 0.4107332 0.9117555
vn 0.4001678 0.8582187 0.3214442
vn 0.5102621 0.3995177 0.7615893
vn 0.1494539 -0.115137 0.9820423
vn 0.5998916 -0.04265904 0.7989433
vn 0.0001102588 -0.4079596 0.9129999
vn 0.5233448 -0.4261589 0.7379016
vn 0.06242387 -0.8654819 0.4970356
vn 0.3017891 -0.8708265 0.3880522
vn 0.8649728 -0.4534293 0.2149978
vn 0.4477208 -0.8887127 0.09867039
vn 0.9673511 -0.04060946 0.2501653
vn 0.8917391 0.3901265 0.2293531
vn -0.06233729 -0.8655922 0.4968542
vn -0.1492671 -0.1163806 0.9819241
vn -0.5217949 -0.4288036 0.737467
vn -0.3010125 -0.871228 0.3877541
vn -0.8627286 -0.4578827 0.2145757
vn -0.4465885 -0.8893028 0.09848422
vn -0.5998525 -0.04711567 0.7987222
vn -0.9670331 -0.04786555 0.2501118
vn -0.5113707 0.396021 0.7626713
vn -0.8945147 0.3834116 0.2298671
g 1_EffectSource_0
f 3/3/3 2/2/2 1/1/1
f 4/4/4 1/1/1 2/2/2
f 1/1/1 5/5/5 3/3/3
f 6/6/6 3/3/3 5/5/5
f 3/3/3 6/6/6 2/2/2
f 1/1/1 4/4/4 7/7/7
f 8/8/8 7/7/7 4/4/4
f 5/5/5 1/1/1 9/9/9
f 7/7/7 9/9/9 1/1/1
f 7/7/7 8/8/8 10/10/10
f 11/11/11 10/10/10 8/8/8
f 9/9/9 7/7/7 12/12/12
f 10/10/10 12/12/12 7/7/7
f 9/9/9 12/12/12 13/13/13
f 9/9/9 13/13/13 5/5/5
f 14/14/14 13/13/13 12/12/12
f 10/10/10 11/11/11 15/15/15
f 15/15/15 12/12/12 10/10/10
f 12/12/12 15/15/15 14/14/14
f 16/16/16 15/15/15 11/11/11
f 17/17/17 14/14/14 15/15/15
f 17/17/17 15/15/15 18/18/18
f 15/15/15 16/16/16 18/18/18
f 16/16/16 19/19/19 18/18/18
f 16/16/16 11/11/11 19/19/19
f 6/6/6 5/5/5 20/20/20
f 21/21/21 20/20/20 5/5/5
f 21/21/21 5/5/5 13/13/13
f 22/22/22 19/19/19 11/11/11
f 11/11/11 23/23/23 22/22/22
f 24/24/24 22/22/22 23/23/23
f 23/23/23 4/4/4 24/24/24
f 23/23/23 8/8/8 4/4/4
f 25/25/25 24/24/24 4/4/4
f 4/4/4 26/26/26 25/25/25
f 2/2/2 26/26/26 4/4/4
f 27/27/27 25/25/25 26/26/26
f 25/25/25 27/27/27 28/28/28
f 29/29/29 28/28/28 27/27/27
f 27/27/27 26/26/26 29/29/29
f 24/24/24 25/25/25 30/30/30
f 28/28/28 30/30/30 25/25/25
f 22/22/22 24/24/24 31/31/31
f 30/30/30 31/31/31 24/24/24
f 30/30/30 32/32/32 31/31/31
f 30/30/30 28/28/28 32/32/32
f 33/33/33 31/31/31 32/32/32
f 31/31/31 19/19/19 22/22/22
f 31/31/31 33/33/33 19/19/19
f 34/34/34 19/19/19 33/33/33
f 29/29/29 35/35/35 28/28/28
f 29/29/29 26/26/26 35/35/35
f 26/26/26 2/2/2 35/35/35
f 36/36/36 28/28/28 35/35/35
f 36/36/36 32/32/32 28/28/28
f 35/35/35 2/2/2 37/37/37
f 2/2/2 20/20/20 37/37/37
f 6/6/6 20/20/20 2/2/2
f 40/40/40 39/39/39 38/38/38
f 40/40/40 38/38/38 41/41/41
f 40/40/40 41/41/41 42/42/42
f 43/43/43 42/42/42 41/41/41
f 41/41/41 44/44/44 43/43/43
f 45/45/45 43/43/43 44/44/44
f 44/44/44 46/46/46 45/45/45
f 47/47/47 45/45/45 46/46/46
f 46/46/46 48/48/48 47/47/47
f 49/49/49 47/47/47 48/48/48
f 47/47/47 49/49/49 50/50/50
f 51/51/51 50/50/50 49/49/49
f 45/45/45 47/47/47 52/52/52
f 50/50/50 52/52/52 47/47/47
f 43/43/43 45/45/45 53/53/53
f 52/52/52 53/53/53 45/45/45
f 53/53/53 42/42/42 43/43/43
f 48/48/48 46/46/46 54/54/54
f 51/51/51 49/49/49 54/54/54
f 49/49/49 48/48/48 54/54/54
f 44/44/44 41/41/41 55/55/55
f 46/46/46 44/44/44 55/55/55
f 46/46/46 56/56/56 54/54/54
f 57/57/57 54/54/54 56/56/56
f 56/56/56 58/58/58 57/57/57
f 59/59/59 57/57/57 58/58/58
f 57/57/57 59/59/59 54/54/54
f 56/56/56 46/46/46 60/60/60
f 55/55/55 60/60/60 46/46/46
f 58/58/58 56/56/56 61/61/61
f 60/60/60 61/61/61 56/56/56
f 60/60/60 55/55/55 62/62/62
f 41/41/41 62/62/62 55/55/55
f 61/61/61 60/60/60 63/63/63
f 62/62/62 63/63/63 60/60/60
f 62/62/62 41/41/41 38/38/38
f 38/38/38 63/63/63 62/62/62
f 8/8/8 23/23/23 11/11/11
