# 3ds Max Wavefront OBJ Exporter v0.97b - (c)2007 guruware
# File Created: 06.02.2016 14:55:14

mtllib Cube 40.mtl

#
# object Box002
#

v  0.4600 -0.4600 -0.5000
v  -0.4600 -0.4600 -0.5000
v  -0.4600 0.4600 -0.5000
v  0.4600 0.4600 -0.5000
v  -0.4600 0.4600 0.5000
v  -0.4600 -0.4600 0.5000
v  0.4600 -0.4600 0.5000
v  0.4600 0.4600 0.5000
v  -0.4600 -0.5000 0.4600
v  -0.4600 -0.5000 -0.4600
v  0.4600 -0.5000 -0.4600
v  0.4600 -0.5000 0.4600
v  0.5000 -0.4600 0.4600
v  0.5000 -0.4600 -0.4600
v  0.5000 0.4600 -0.4600
v  0.5000 0.4600 0.4600
v  0.4600 0.5000 0.4600
v  0.4600 0.5000 -0.4600
v  -0.4600 0.5000 -0.4600
v  -0.4600 0.5000 0.4600
v  -0.5000 0.4600 0.4600
v  -0.5000 0.4600 -0.4600
v  -0.5000 -0.4600 -0.4600
v  -0.5000 -0.4600 0.4600
# 24 vertices

vn 0.3416 -0.3416 -0.8756
vn -0.3416 -0.3416 -0.8756
vn -0.3416 0.3416 -0.8756
vn 0.3416 0.3416 -0.8756
vn 0.0000 0.0000 1.0000
vn -0.3416 -0.8756 0.3416
vn -0.3416 -0.8756 -0.3416
vn 0.3416 -0.8756 -0.3416
vn 0.3416 -0.8756 0.3416
vn 0.8756 -0.3416 0.3416
vn 0.8756 -0.3416 -0.3416
vn 0.8756 0.3416 -0.3416
vn 0.8756 0.3416 0.3416
vn 0.3416 0.8756 0.3416
vn 0.3416 0.8756 -0.3416
vn -0.3416 0.8756 -0.3416
vn -0.3416 0.8756 0.3416
vn -0.8756 0.3416 0.3416
vn -0.8756 0.3416 -0.3416
vn -0.8756 -0.3416 -0.3416
vn -0.8756 -0.3416 0.3416
vn -0.4606 -0.4606 0.7588
vn 0.4606 -0.4606 0.7588
vn -0.4606 0.4606 0.7588
vn 0.4606 0.4606 0.7588
# 25 vertex normals

vt 0.2536 0.3841 0.0000
vt 0.4837 0.3852 0.0000
vt 0.4827 0.6149 0.0000
vt 0.2528 0.6142 0.0000
vt 0.7375 0.6149 0.0000
vt 0.7372 0.3858 0.0000
vt 0.9664 0.3856 0.0000
vt 0.9667 0.6147 0.0000
vt 0.7261 0.3747 0.0000
vt 0.4949 0.3742 0.0000
vt 0.4954 0.1431 0.0000
vt 0.7265 0.1435 0.0000
vt 0.0087 0.3833 0.0000
vt 0.2393 0.3840 0.0000
vt 0.2386 0.6143 0.0000
vt 0.0081 0.6138 0.0000
vt 0.7206 0.8494 0.0000
vt 0.4993 0.8492 0.0000
vt 0.4993 0.6278 0.0000
vt 0.7209 0.6280 0.0000
vt 0.7234 0.6149 0.0000
vt 0.4969 0.6147 0.0000
vt 0.4971 0.3877 0.0000
vt 0.7238 0.3882 0.0000
vt 0.2466 0.3717 0.0000
vt 0.4861 0.6256 0.0000
vt 0.4862 0.8514 0.0000
vt 0.4970 0.8623 0.0000
vt 0.9799 0.3833 0.0000
vt 0.9687 0.3721 0.0000
vt 0.7341 0.6259 0.0000
vt 0.7337 0.8517 0.0000
vt 0.7229 0.8625 0.0000
vt 0.2537 0.3700 0.0000
vt 0.4837 0.3710 0.0000
vt 0.7372 0.3715 0.0000
vt 0.9810 0.6146 0.0000
vt 0.0087 0.3691 0.0000
vt 0.2394 0.3698 0.0000
# 39 texture coords

g Box002
usemtl _Cube_40wire_140088225
s 1
f 1/1/1 2/2/2 3/3/3 4/4/4 
s 2
f 5/5/5 6/6/5 7/7/5 8/8/5 
s 1
f 9/9/6 10/10/7 11/11/8 12/12/9 
f 13/13/10 14/14/11 15/15/12 16/16/13 
f 17/17/14 18/18/15 19/19/16 20/20/17 
f 21/21/18 22/22/19 23/23/20 24/24/21 
f 10/10/7 23/23/20 2/2/2 
f 1/1/1 14/14/11 11/25/8 
f 22/22/19 19/19/16 3/26/3 
f 4/27/4 18/18/15 15/28/12 
f 9/9/6 6/6/22 24/24/21 
f 13/29/10 7/7/23 12/30/9 
f 21/21/18 5/31/24 20/20/17 
f 17/17/14 8/32/25 16/33/13 
f 23/23/20 22/22/19 3/3/3 2/2/2 
f 19/19/16 18/18/15 4/27/4 3/26/3 
f 15/15/12 14/14/11 1/1/1 4/4/4 
f 11/34/8 10/35/7 2/2/2 1/1/1 
f 9/36/6 12/30/9 7/7/23 6/6/22 
f 13/29/10 16/37/13 8/8/25 7/7/23 
f 17/17/14 20/20/17 5/31/24 8/32/25 
f 21/21/18 24/24/21 6/6/22 5/5/24 
f 14/14/11 13/13/10 12/38/9 11/39/8 
f 24/24/21 23/23/20 10/10/7 9/9/6 
f 18/18/15 17/17/14 16/33/13 15/28/12 
f 22/22/19 21/21/18 20/20/17 19/19/16 
# 18 polygons - 8 triangles

